<mxfile host="app.diagrams.net" modified="2020-11-21T03:56:50.647Z" agent="5.0 (Windows NT 10.0; Win64; x64) AppleWebKit/537.36 (KHTML, like Gecko) Chrome/86.0.4240.198 Safari/537.36" etag="lvvrMd4Lp7AA40lMfNIR" version="13.10.0" type="github">
  <diagram id="pZ4BSfanutuTEvRVK5hX" name="Page-1">
    <mxGraphModel dx="1422" dy="762" grid="1" gridSize="10" guides="1" tooltips="1" connect="1" arrows="1" fold="1" page="1" pageScale="1" pageWidth="827" pageHeight="1169" math="0" shadow="0">
      <root>
        <mxCell id="0" />
        <mxCell id="1" parent="0" />
        <mxCell id="VYR3HbamOwLvRZmip648-3" style="edgeStyle=orthogonalEdgeStyle;rounded=0;orthogonalLoop=1;jettySize=auto;html=1;entryX=0.5;entryY=0;entryDx=0;entryDy=0;" edge="1" parent="1" source="VYR3HbamOwLvRZmip648-1" target="VYR3HbamOwLvRZmip648-2">
          <mxGeometry relative="1" as="geometry" />
        </mxCell>
        <mxCell id="VYR3HbamOwLvRZmip648-6" style="edgeStyle=orthogonalEdgeStyle;rounded=1;orthogonalLoop=1;jettySize=auto;html=1;exitX=0;exitY=0.5;exitDx=0;exitDy=0;entryX=0.5;entryY=0;entryDx=0;entryDy=0;" edge="1" parent="1" source="VYR3HbamOwLvRZmip648-1" target="VYR3HbamOwLvRZmip648-4">
          <mxGeometry relative="1" as="geometry" />
        </mxCell>
        <mxCell id="VYR3HbamOwLvRZmip648-7" style="edgeStyle=orthogonalEdgeStyle;rounded=1;orthogonalLoop=1;jettySize=auto;html=1;exitX=1;exitY=0.5;exitDx=0;exitDy=0;entryX=0.583;entryY=0;entryDx=0;entryDy=0;entryPerimeter=0;" edge="1" parent="1" source="VYR3HbamOwLvRZmip648-1" target="VYR3HbamOwLvRZmip648-5">
          <mxGeometry relative="1" as="geometry">
            <Array as="points">
              <mxPoint x="680" y="195" />
              <mxPoint x="680" y="300" />
            </Array>
          </mxGeometry>
        </mxCell>
        <mxCell id="VYR3HbamOwLvRZmip648-1" value="MessageManageer&lt;br&gt;&lt;br&gt;void pushMessage()" style="rounded=0;whiteSpace=wrap;html=1;fillColor=#d5e8d4;strokeColor=#82b366;" vertex="1" parent="1">
          <mxGeometry x="354" y="150" width="176" height="90" as="geometry" />
        </mxCell>
        <mxCell id="VYR3HbamOwLvRZmip648-2" value="MessageFacade&lt;br&gt;&lt;br&gt;一次性推送所有消息" style="rounded=0;whiteSpace=wrap;html=1;fillColor=#dae8fc;strokeColor=#6c8ebf;" vertex="1" parent="1">
          <mxGeometry x="337" y="460" width="210" height="60" as="geometry" />
        </mxCell>
        <mxCell id="VYR3HbamOwLvRZmip648-4" value="DingTalkMessageManager" style="rounded=0;whiteSpace=wrap;html=1;fillColor=#dae8fc;strokeColor=#6c8ebf;" vertex="1" parent="1">
          <mxGeometry x="110" y="300" width="190" height="60" as="geometry" />
        </mxCell>
        <mxCell id="VYR3HbamOwLvRZmip648-5" value="SmsMessageManager" style="rounded=0;whiteSpace=wrap;html=1;fillColor=#dae8fc;strokeColor=#6c8ebf;" vertex="1" parent="1">
          <mxGeometry x="570" y="300" width="180" height="60" as="geometry" />
        </mxCell>
        <mxCell id="VYR3HbamOwLvRZmip648-8" value="&lt;span style=&quot;font-size: 18px&quot;&gt;外观设计模式&lt;/span&gt;" style="text;html=1;strokeColor=none;fillColor=none;align=center;verticalAlign=middle;whiteSpace=wrap;rounded=0;" vertex="1" parent="1">
          <mxGeometry x="60" y="50" width="200" height="20" as="geometry" />
        </mxCell>
      </root>
    </mxGraphModel>
  </diagram>
</mxfile>
